<svg width="12" height="28" viewBox="0 0 12 28" fill="none" xmlns="http://www.w3.org/2000/svg">
<path d="M2.81819 5.32V21.56C2.81819 21.56 2.58146 24.9684 6.05218 24.9684C9.18181 24.9684 9.18181 21.56 9.18181 21.56V4.48C9.18181 4.48 9.18181 0 4.72727 0C0.272736 0 0.272736 4.48 0.272736 4.48V21.56C0.272736 21.56 0.272736 28 6 28C11.7273 28 11.7273 21.56 11.7273 21.56V4.48C11.7273 3.78 10.4545 3.78 10.4545 4.48V21.56C10.4545 21.56 10.9178 26.7273 6 26.7273C1.54546 26.7273 1.54546 21.56 1.54546 21.56V4.48C1.54546 4.48 1.54546 1.27273 4.72727 1.27273C7.90909 1.27273 7.90909 4.48 7.90909 4.48V21.56C7.90909 21.56 7.90909 23.5684 6.05218 23.5684C4.19531 23.5684 4.09091 21.56 4.09091 21.56V5.32C4.09091 4.62 2.81819 4.62 2.81819 5.32Z" fill="white"/>
</svg>
