<svg width="35" height="35" viewBox="0 0 35 35" fill="none" xmlns="http://www.w3.org/2000/svg">
<path d="M17.8996 28.9735L17.6745 28.527L17.8996 28.9735ZM17.101 28.9735L17.3262 28.527H17.3262L17.101 28.9735ZM27.2087 16.0417C27.2087 19.6233 25.3272 22.4977 23.1613 24.62C20.9968 26.7411 18.5955 28.0626 17.6745 28.527L18.1248 29.4199C19.0895 28.9334 21.5927 27.5573 23.8612 25.3343C26.1285 23.1126 28.2087 19.9966 28.2087 16.0417H27.2087ZM17.5003 6.33333C22.8621 6.33333 27.2087 10.6799 27.2087 16.0417H28.2087C28.2087 10.1276 23.4144 5.33333 17.5003 5.33333V6.33333ZM7.79199 16.0417C7.79199 10.6799 12.1386 6.33333 17.5003 6.33333V5.33333C11.5863 5.33333 6.79199 10.1276 6.79199 16.0417H7.79199ZM17.3262 28.527C16.4052 28.0626 14.0038 26.7411 11.8393 24.62C9.6735 22.4977 7.79199 19.6233 7.79199 16.0417H6.79199C6.79199 19.9966 8.87213 23.1126 11.1394 25.3343C13.408 27.5573 15.9111 28.9334 16.8759 29.4199L17.3262 28.527ZM17.6745 28.527C17.5617 28.5839 17.4389 28.5839 17.3262 28.527L16.8759 29.4199C17.2718 29.6196 17.7288 29.6196 18.1248 29.4199L17.6745 28.527ZM21.3753 16.0417C21.3753 18.1818 19.6404 19.9167 17.5003 19.9167V20.9167C20.1927 20.9167 22.3753 18.734 22.3753 16.0417H21.3753ZM17.5003 12.1667C19.6404 12.1667 21.3753 13.9016 21.3753 16.0417H22.3753C22.3753 13.3493 20.1927 11.1667 17.5003 11.1667V12.1667ZM13.6253 16.0417C13.6253 13.9016 15.3602 12.1667 17.5003 12.1667V11.1667C14.8079 11.1667 12.6253 13.3493 12.6253 16.0417H13.6253ZM17.5003 19.9167C15.3602 19.9167 13.6253 18.1818 13.6253 16.0417H12.6253C12.6253 18.734 14.8079 20.9167 17.5003 20.9167V19.9167Z" fill="#F1C40F"/>
</svg>
