<svg width="35" height="35" viewBox="0 0 35 35" fill="none" xmlns="http://www.w3.org/2000/svg">
<path d="M10.6796 7.20927L11.1818 6.70711C11.5723 6.31658 12.2055 6.31658 12.596 6.70711L16.0707 10.1818C16.4612 10.5723 16.4612 11.2055 16.0707 11.596L14.6655 13.0012C14.4671 13.1995 14.4179 13.5026 14.5434 13.7535C15.9938 16.6542 18.3458 19.0062 21.2465 20.4566C21.4974 20.5821 21.8005 20.5329 21.9988 20.3345L23.404 18.9293C23.7945 18.5388 24.4277 18.5388 24.8182 18.9293L28.2929 22.404C28.6834 22.7945 28.6834 23.4277 28.2929 23.8182L27.7907 24.3204C25.6794 26.4317 22.3368 26.6693 19.9481 24.8777L16.9619 22.6381C15.2184 21.3304 13.6696 19.7816 12.3619 18.0381L10.1223 15.0519C8.33072 12.6632 8.56827 9.32062 10.6796 7.20927Z" stroke="#F1C40F"/>
</svg>
