<svg width="30" height="30" viewBox="0 0 30 30" fill="none" xmlns="http://www.w3.org/2000/svg">
<path d="M15 0C6.71566 0 0 6.71566 0 15C0 23.2843 6.71566 30 15 30C23.2843 30 30 23.2843 30 15C30 6.71566 23.2843 0 15 0Z" fill="#40B3E0"/>
<path d="M22.2988 8.62877L19.6196 22.1366C19.6196 22.1366 19.245 23.0734 18.2145 22.6238L12.032 17.8838L9.78383 16.7972L5.99938 15.5231C5.99938 15.5231 5.4186 15.3171 5.36235 14.8675C5.30621 14.4178 6.01813 14.1743 6.01813 14.1743L21.0622 8.27275C21.0622 8.27275 22.2988 7.72947 22.2988 8.62877Z" fill="white"/>
<path d="M11.5568 21.9849C11.5568 21.9849 11.3763 21.968 11.1515 21.256C10.9267 20.5441 9.78387 16.7971 9.78387 16.7971L18.8702 11.0268C18.8702 11.0268 19.3949 10.7083 19.3761 11.0268C19.3761 11.0268 19.4698 11.0829 19.1888 11.3452C18.9077 11.6076 12.0507 17.7713 12.0507 17.7713" fill="#D2E5F1"/>
<path d="M14.4025 19.701L11.9571 21.9306C11.9571 21.9306 11.7659 22.0757 11.5568 21.9848L12.025 17.8433" fill="#B5CFE4"/>
</svg>
