<svg width="30" height="30" viewBox="0 0 30 30" fill="none" xmlns="http://www.w3.org/2000/svg">
<path d="M0 30L2.58 22.2605C1.27086 20.0586 0.517241 17.489 0.517241 14.7414C0.517241 6.6 7.11724 0 15.2586 0C23.4 0 30 6.6 30 14.7414C30 22.8828 23.4 29.4828 15.2586 29.4828C12.7816 29.4828 10.4488 28.8688 8.4 27.7898L0 30Z" fill="#2CB742"/>
<path d="M24.6636 19.6475C23.9829 18.3611 21.4728 16.89 21.4728 16.89C20.9048 16.5663 20.2195 16.53 19.8957 17.1073C19.8957 17.1073 19.08 18.0854 18.8726 18.2261C17.925 18.868 17.0472 18.8432 16.1612 17.9571L14.1021 15.898L12.0429 13.8388C11.1569 12.9528 11.1321 12.075 11.774 11.1275C11.9147 10.92 12.8928 10.1044 12.8928 10.1044C13.47 9.78005 13.4338 9.09522 13.11 8.52729C13.11 8.52729 11.639 6.01712 10.3526 5.33643C9.80534 5.04677 9.13345 5.14815 8.69586 5.58574L7.78655 6.49505C4.90189 9.3797 6.32224 12.6363 9.20689 15.5209L11.8433 18.1573L14.4797 20.7937C17.3643 23.6783 20.6209 25.0987 23.5055 22.214L24.4148 21.3047C24.8524 20.8661 24.9533 20.1942 24.6636 19.6475Z" fill="white"/>
</svg>
